<svg xmlns="http://www.w3.org/2000/svg" width="180" height="47" viewBox="0 0 180 47" fill="none">
  <path d="M177.444 24.613C176.8 23.0814 176.155 21.5498 175.471 19.9243C173.822 20.1418 172.248 20.3112 170.7 20.5814C170.255 20.6592 169.571 21.0095 169.543 21.2728C169.473 21.9458 169.687 22.6418 169.861 23.3172C169.881 23.3927 170.373 23.4179 170.644 23.4133C171.587 23.3996 172.527 23.3263 173.47 23.3401C174.748 23.3584 176.048 23.3813 176.741 24.5191C176.814 24.6382 177.059 24.6862 177.222 24.7664C177.295 24.7137 177.371 24.6633 177.444 24.613Z" fill="url(#paint0_linear_9_10904)"/>
  <path d="M180 32.855C180 33.8258 179.53 34.7988 178.412 35.3368C177.537 35.7626 176.341 35.8405 176.214 36.9417C176.203 37.0149 175.955 37.1202 175.811 37.1294C174.173 37.2462 172.532 37.3492 170.88 37.4568C172.222 36.6028 176.434 33.6907 175.738 31.0304C174.916 27.871 172.262 27.8687 169.706 26.4172C167.144 24.9611 167.389 23.5417 166.404 22.5458C165.416 21.5499 131.182 16.9847 128.44 14.4526C128.372 14.3908 128.302 14.3267 128.226 14.2603C128.294 14.258 128.119 14.2535 128.192 14.2535C126.43 12.7264 124.964 11.2955 123.286 10.0501C121.138 8.45892 118.897 6.93874 116.556 5.54448C114.605 4.38145 112.305 3.83656 109.842 3.85259C107.517 3.86404 105.192 3.85488 102.664 3.85488C102.839 4.88054 103.008 5.89476 103.182 6.90211H91.8184C91.7537 5.98405 91.6889 5.06369 91.6326 4.14564C91.5876 3.45423 91.3005 3.23674 90.4532 3.23902C87.1908 3.24131 83.9311 3.2436 80.6715 3.24589H80.4576C76.4013 3.24818 71.4049 3.14287 67.3487 3.19095C67.3459 3.19095 67.3431 3.18866 67.3431 3.18866C67.1432 3.08334 67.6302 3.16118 67.3431 3.18866C67.3177 3.19095 67.2868 3.19095 67.2502 3.19095C63.0926 3.32145 58.9294 3.36952 54.769 3.45194C54.2764 3.45194 53.7838 3.45652 53.294 3.45652C53.2743 3.45652 53.249 3.4611 53.2152 3.46797C52.7282 3.47484 52.2469 3.50002 51.7937 3.60533C51.1772 3.74957 50.3694 4.12274 50.1695 4.55544C49.8205 5.31782 49.4771 6.07791 49.1421 6.84487C49.1336 6.86319 49.1252 6.88379 49.1168 6.90211H42.7382C42.7495 6.88379 42.7579 6.86319 42.7692 6.84487C43.3097 5.82837 43.8557 4.81186 44.3962 3.79307C44.4441 3.70836 44.4328 3.59847 44.4722 3.36266C44.0078 3.30542 43.5517 3.19552 43.0957 3.19552C31.7546 3.20697 20.4135 3.23674 9.07234 3.23902C8.26447 3.23902 7.80283 3.43591 7.48756 4.0655C7.02029 4.99272 6.54738 5.91994 6.07167 6.84487H0C0.365934 6.05502 0.729051 5.26516 1.08936 4.47302C2.40953 1.56316 5.30603 0.564971 8.72048 0.395554C12.3686 0.2124 16.0307 0.237586 19.6872 0.205535C28.1544 0.127694 36.6215 0.0475605 45.0887 0.00864022C54.1751 -0.0371483 63.2615 0.111665 72.3479 0.159743C75.1234 0.175769 77.8988 0.189509 80.6715 0.205535V0.249034C85.0852 0.294823 89.4961 0.345188 93.9099 0.404713C100.722 0.49858 107.528 0.99081 114.326 1.40978C115.857 1.50364 117.344 2.05539 118.85 2.39652C118.824 2.49267 118.799 2.59112 118.774 2.68727C118.391 2.85211 118.008 3.01695 117.56 3.21155C117.71 3.36494 117.783 3.48399 117.901 3.55725C122.644 6.5999 127.376 9.654 132.144 12.6692C134.227 13.9879 136.682 14.2809 139.153 13.7658C140.468 13.4934 141.608 13.3949 142.982 13.5575C146.185 13.9375 149.453 13.9696 152.679 14.2535C158.925 14.8075 165.166 15.4211 171.403 16.0575C172.36 16.1537 173.368 16.3986 174.182 16.8016C174.767 17.0923 175.066 17.7609 175.493 18.2599C174.888 18.5599 174.32 18.9308 173.675 19.1414C173.199 19.2948 172.608 19.1986 172.09 19.2879C168.026 19.977 167.539 20.0114 168.417 23.7592C168.425 23.7912 168.42 23.8416 168.445 23.8553C168.786 24.0545 169.129 24.4093 169.478 24.4139C170.829 24.4231 172.192 24.2331 173.537 24.2995C174.227 24.3338 174.891 24.7459 175.564 24.9932C176.321 25.2725 177.084 25.7967 177.833 25.7853C179.082 25.7716 179.536 26.3279 179.62 27.0742C179.842 28.9951 180 30.9273 180 32.855Z" fill="#673622"/>
  <path d="M145.557 28.6745C156.108 28.3883 166.199 34.9315 166.641 44.4737C166.43 44.3341 166.157 44.254 165.833 44.254H133.493C132.555 44.254 131.66 44.0365 130.83 43.6083C130.008 43.1825 129.4 42.601 129.02 41.8753L128.775 41.4242H142.233C142.686 41.4242 143.094 41.2869 143.41 41.0305C143.728 40.7718 143.897 40.4283 143.897 40.0414V37.839C143.897 37.024 143.694 36.2387 143.291 35.5038C142.894 34.7781 142.354 34.137 141.69 33.5945C141.023 33.0519 140.232 32.6146 139.339 32.2918C138.436 31.9644 137.47 31.7996 136.468 31.7996H133.49C132.488 31.7996 131.522 31.9644 130.619 32.2918C129.727 32.6146 128.936 33.0519 128.268 33.5945C127.601 34.137 127.064 34.7781 126.667 35.5038C126.264 36.2387 126.062 37.024 126.062 37.839V40.0094C126.062 40.8359 126.247 41.6417 126.616 42.3995C126.985 43.1596 127.503 43.8304 128.156 44.3982C128.809 44.966 129.594 45.4261 130.484 45.7718C131.393 46.1244 132.403 46.303 133.487 46.303H165.827C166.568 46.303 167.066 45.8863 167.066 45.2636C167.066 45.0873 167.018 44.9316 166.942 44.7943C169.062 35.2497 159.688 26.9346 145.557 28.6745ZM128.581 36.7722C128.581 36.3761 128.716 35.9983 128.978 35.6481C129.251 35.2886 129.617 34.9727 130.064 34.7025C130.512 34.4347 131.041 34.2218 131.635 34.0684C132.22 33.9173 132.845 33.8394 133.487 33.8394H136.462C137.13 33.8394 137.766 33.9173 138.351 34.0684C138.945 34.2218 139.472 34.437 139.922 34.7025C140.367 34.9681 140.724 35.284 140.983 35.6412C141.237 35.9915 141.366 36.3715 141.366 36.7722V37.9031H128.584V36.7722H128.581Z" fill="#673622"/>
  <path d="M85.8654 35.0139C85.3953 35.0139 85.0801 35.2772 85.0801 35.671L85.0632 40.5978L77.4884 40.5817C77.4855 40.5817 77.4489 40.5794 77.3448 40.5611H77.342C77.2097 40.4879 77.1928 40.4215 77.1928 40.3619C77.1928 40.3322 77.2097 40.2887 77.235 40.2452L81.1251 34.7895L81.1336 34.7758C81.2012 34.6659 81.2321 34.5766 81.2321 34.4873C81.2321 34.3225 81.1533 34.1668 81.0097 34.0478C80.8465 33.9173 80.6213 33.8509 80.3933 33.8692C80.1568 33.8898 79.9429 33.9951 79.8078 34.16L75.8979 39.6225L75.881 39.6499C75.8247 39.753 75.7797 39.8583 75.7403 39.9567C75.6953 40.0804 75.6699 40.2131 75.6699 40.3574C75.6699 40.6069 75.7459 40.8473 75.8979 41.0717C76.0499 41.2937 76.2723 41.4815 76.5622 41.6257L76.6354 41.6555C76.8944 41.7631 77.1787 41.8157 77.4799 41.818L85.0575 41.834L85.0463 45.1651C85.0463 45.5474 85.3587 45.8039 85.8288 45.8062C86.313 45.8062 86.6395 45.552 86.6395 45.1697L86.6705 35.6755C86.6705 35.5176 86.5973 35.3642 86.4565 35.2337C86.3074 35.0917 86.0962 35.0139 85.8654 35.0139Z" fill="#673622"/>
  <path d="M105.839 33.9402C105.364 33.9402 105.043 34.1943 105.04 34.5767L105.017 41.5159L95.7254 41.4953L95.748 34.5561C95.748 34.1737 95.4243 33.9173 94.9401 33.915C94.47 33.915 94.1548 34.1692 94.1548 34.5515L94.1182 45.1812C94.1182 45.5635 94.4306 45.8199 94.9007 45.8222C95.3849 45.8222 95.7114 45.5681 95.7114 45.1858L95.7198 42.7933L105.012 42.8139L105.003 45.2064C105.003 45.5887 105.321 45.8451 105.797 45.8474C106.273 45.8474 106.594 45.5933 106.597 45.211L106.633 34.5813C106.636 34.1989 106.315 33.9425 105.839 33.9402Z" fill="#673622"/>
  <path d="M110.044 34.5811C109.875 34.7185 109.785 34.9016 109.785 35.1077C109.785 35.316 109.875 35.4992 110.044 35.6342C110.213 35.7716 110.438 35.8448 110.694 35.8448C110.951 35.8448 111.173 35.7716 111.342 35.6342C111.511 35.4969 111.601 35.3137 111.601 35.1077C111.601 34.9016 111.511 34.7185 111.339 34.5788C110.993 34.2995 110.388 34.2995 110.044 34.5811Z" fill="#673622"/>
  <path d="M110.7 36.7583C110.208 36.75 83 109.89 37.0147 109.89 37.4154L109.864 45.2132C109.864 45.5955 110.188 45.852 110.672 45.8542C111.142 45.8542 111.457 45.6001 111.46 45.2178L111.486 37.4199C111.486 37.0239 111.17 36.7606 110.7 36.7583Z" fill="#673622"/>
  <path d="M123.84 37.7451C123.41 37.3834 122.903 37.1018 122.337 36.9118C121.769 36.7217 121.158 36.6233 120.527 36.6233H119.204C118.571 36.6233 117.96 36.724 117.389 36.9232C116.82 37.1224 116.319 37.3971 115.903 37.7451C115.489 38.0885 115.154 38.4892 114.903 38.9402C114.65 39.3958 114.512 39.8881 114.495 40.4101V45.1607C114.495 45.5614 114.813 45.8201 115.303 45.8201C115.773 45.8201 116.088 45.5545 116.088 45.1607V40.4078C116.102 40.0758 116.195 39.7553 116.364 39.4576C116.536 39.1554 116.767 38.8876 117.051 38.6632C117.335 38.4365 117.67 38.2534 118.042 38.1206C118.405 37.9901 118.796 37.9237 119.202 37.9237H120.525C120.93 37.9237 121.327 37.9901 121.698 38.1229C122.078 38.258 122.425 38.4434 122.717 38.6701C122.867 38.7937 123.072 38.8624 123.292 38.8624C123.762 38.8624 124.077 38.5968 124.077 38.203C124.085 37.942 123.925 37.8001 123.84 37.7451Z" fill="#673622"/>
  <path d="M12.749 26.7537H6.80676C6.16215 26.7537 5.55415 26.653 4.99962 26.4538C4.43664 26.2523 3.93842 25.9753 3.51619 25.6319C3.09396 25.2885 2.75616 24.8833 2.50564 24.4254C2.26075 23.9744 2.13689 23.4799 2.13689 22.9556V11.971C2.13689 11.4833 1.73718 11.1697 1.11509 11.1697C0.515521 11.1697 0.129883 11.4833 0.129883 11.971V22.9556C0.129883 23.6928 0.307219 24.4048 0.656263 25.0687C1.00531 25.7304 1.48384 26.3119 2.08059 26.7972C2.67734 27.2826 3.39232 27.6718 4.20582 27.9557C5.02213 28.2396 5.89755 28.3838 6.80394 28.3838H12.7462C13.3429 28.3838 13.7314 28.0701 13.7314 27.5825C13.7342 27.0811 13.3457 26.7537 12.749 26.7537Z" fill="#673622"/>
  <path d="M16.1548 18.3057C15.6087 18.3057 15.2568 18.5918 15.2568 19.036V27.681C15.2568 28.1114 15.6087 28.3884 16.1548 28.3884C16.6755 28.3884 17.0246 28.1045 17.0246 27.681V19.036C17.0246 18.5987 16.6755 18.3057 16.1548 18.3057Z" fill="#673622"/>
  <path d="M15.4375 15.9293C15.2489 16.0827 15.1504 16.2842 15.1504 16.5131C15.1504 16.7444 15.2489 16.9458 15.4375 17.0969C15.6261 17.2503 15.8738 17.3304 16.1581 17.3304C16.4396 17.3304 16.6901 17.2503 16.8759 17.0969C17.0645 16.9435 17.163 16.7421 17.163 16.5131C17.163 16.2842 17.0645 16.0827 16.8731 15.9271C16.4903 15.6203 15.8175 15.6203 15.4375 15.9293Z" fill="#673622"/>
  <path d="M40.1378 20.7621C39.8591 20.2607 39.4819 19.8143 39.0175 19.4342C38.5502 19.0519 37.9985 18.7474 37.382 18.5276C36.7599 18.3055 36.0872 18.1934 35.3863 18.1934H34.4095C33.4919 18.1934 32.6333 18.3765 31.8621 18.736C31.1668 19.0588 30.57 19.5075 30.0803 20.073C29.6299 19.5075 29.0359 19.0588 28.3097 18.7337C27.5103 18.3765 26.6489 18.1956 25.751 18.1956H24.7714C24.0705 18.1956 23.3921 18.3078 22.7588 18.5276C22.1282 18.7474 21.5737 19.0542 21.1121 19.4388C20.6532 19.8189 20.2817 20.2653 20.003 20.7644C19.7215 21.2704 19.5695 21.8176 19.5498 22.3968V27.658C19.5498 28.1021 19.9017 28.3883 20.4478 28.3883C20.977 28.3883 21.3176 28.1021 21.3176 27.658V22.3876C21.3316 22.019 21.4358 21.6642 21.6244 21.3345C21.8158 21.0002 22.072 20.7026 22.3872 20.4531C22.7025 20.2012 23.074 19.9997 23.485 19.8509C23.8875 19.7067 24.321 19.6334 24.7714 19.6334H25.751C26.2014 19.6334 26.6405 19.7067 27.0543 19.8532C27.4737 19.9997 27.8453 20.2058 28.1577 20.4599C28.4758 20.7186 28.7319 21.0231 28.9234 21.3643C29.1091 21.6985 29.2048 22.0602 29.2048 22.4403V27.658C29.2048 28.1021 29.5454 28.3883 30.0746 28.3883C30.6207 28.3883 30.9726 28.1021 30.9726 27.658V22.3899C30.9895 22.0328 31.088 21.6825 31.2681 21.3505C31.4483 21.0163 31.6988 20.7163 32.0084 20.4576C32.3153 20.2035 32.6784 19.9997 33.095 19.8532C33.5088 19.7067 33.9563 19.6334 34.4236 19.6334H35.4004C35.8508 19.6334 36.2842 19.7067 36.6868 19.8509C37.1005 19.9997 37.4693 20.2012 37.7846 20.4531C38.097 20.7026 38.3532 21.0048 38.5446 21.3505C38.7304 21.6916 38.8261 22.058 38.8261 22.4403V27.658C38.8261 27.8617 38.9274 28.0518 39.1075 28.1868C39.2821 28.3173 39.4904 28.3883 39.7099 28.3883C40.2476 28.3883 40.5938 28.1021 40.5938 27.658V22.3831C40.5713 21.813 40.4193 21.2681 40.1378 20.7621Z" fill="#673622"/>
  <path d="M52.9564 19.4548C52.4863 19.0725 51.9318 18.7657 51.3069 18.5391C50.6707 18.3101 49.9923 18.1934 49.2886 18.1934H47.1943C46.4906 18.1934 45.8123 18.3101 45.1761 18.5391C44.5484 18.7657 43.9939 19.0725 43.5266 19.4548C43.0593 19.8349 42.6793 20.2882 42.4006 20.7965C42.1191 21.3116 41.9756 21.8656 41.9756 22.438V24.1413C41.9756 24.7137 42.1191 25.2655 42.4006 25.7829C42.6793 26.2934 43.0593 26.7444 43.5266 27.1245C43.9939 27.5068 44.5512 27.8136 45.1761 28.0403C45.8094 28.2692 46.4878 28.386 47.1943 28.386H49.2886C49.9952 28.386 50.6736 28.2692 51.3069 28.0403C51.9346 27.8136 52.4891 27.5045 52.9564 27.1245C53.4237 26.7444 53.8037 26.2934 54.0824 25.7829C54.3639 25.2678 54.5074 24.7137 54.5074 24.1413V22.438C54.5074 21.8656 54.3639 21.3139 54.0824 20.7965C53.8037 20.2882 53.4237 19.8372 52.9564 19.4548ZM52.7397 22.438V24.1413C52.7397 24.5237 52.6496 24.8877 52.4694 25.222C52.2865 25.5631 52.036 25.8653 51.7235 26.1194C51.4082 26.3759 51.0367 26.5796 50.6172 26.7284C50.2063 26.875 49.7587 26.9482 49.2886 26.9482H47.1943C46.7271 26.9482 46.2823 26.8727 45.8714 26.7193C45.4491 26.5636 45.0748 26.3552 44.7595 26.0965C44.4471 25.8424 44.1937 25.5402 44.0107 25.1991C43.8306 24.8648 43.7405 24.5077 43.7405 24.1391V22.4357C43.7405 22.0557 43.8362 21.6893 44.022 21.3459C44.2106 20.9979 44.4667 20.6957 44.782 20.4485C45.0973 20.1989 45.4717 19.9952 45.8911 19.8486C46.3049 19.7021 46.7411 19.6288 47.1943 19.6288H49.2886C49.739 19.6288 50.1781 19.7021 50.5919 19.8486C51.0085 19.9952 51.3801 20.2012 51.6954 20.4553C52.0106 20.7118 52.2696 21.0162 52.461 21.3597C52.6468 21.6985 52.7397 22.0602 52.7397 22.438Z" fill="#673622"/>
  <path d="M66.7917 18.1934C66.2709 18.1934 65.9219 18.4864 65.9219 18.9237V24.1413C65.9219 24.5237 65.8318 24.8877 65.6516 25.222C65.4715 25.5608 65.2181 25.863 64.9057 26.1194C64.5904 26.3759 64.2189 26.5796 63.7995 26.7284C63.3885 26.875 62.9409 26.9482 62.4708 26.9482H61.4912C61.0352 26.9482 60.6018 26.8772 60.1964 26.7376C59.7883 26.5979 59.4223 26.3987 59.1071 26.1492C58.7918 25.8996 58.5357 25.602 58.3471 25.2609C58.1585 24.9221 58.0543 24.558 58.0402 24.1848V18.9237C58.0402 18.4864 57.6912 18.1934 57.1704 18.1934C56.6243 18.1934 56.2725 18.4795 56.2725 18.9237V24.1963C56.2922 24.7664 56.4442 25.3113 56.7257 25.8172C57.0015 26.3163 57.3759 26.7628 57.8319 27.1428C58.2936 27.5274 58.8481 27.8319 59.4786 28.054C60.112 28.2738 60.7875 28.386 61.4884 28.386H62.468C63.1689 28.386 63.8445 28.2738 64.4778 28.054C65.1084 27.8342 65.6629 27.5274 66.1245 27.1428C66.5833 26.7628 66.9549 26.3163 67.2308 25.8172C67.5123 25.3135 67.6643 24.7664 67.684 24.1848V18.9237C67.6896 18.4864 67.3293 18.1934 66.7917 18.1934Z" fill="#673622"/>
  <path d="M79.582 23.8622C79.0528 23.4821 78.3913 23.1959 77.6116 23.0082C76.8769 22.8319 76.0719 22.7037 75.219 22.6281C74.4139 22.5572 73.6595 22.4542 72.9755 22.3259C72.3366 22.2069 71.8017 22.0237 71.3879 21.7833C71.053 21.5887 70.8982 21.3003 70.8982 20.8744C70.8982 20.5242 71.0417 20.2471 71.3485 19.9976C71.6553 19.748 71.9988 19.6336 72.4322 19.6336H76.891C77.3245 19.6336 77.6679 19.7503 77.9776 19.9976L78.0704 20.0731C78.1605 20.1578 78.2393 20.2632 78.3069 20.3891C78.3688 20.5036 78.3998 20.6089 78.3998 20.6959V20.895C78.3998 21.3186 78.7516 21.6025 79.2724 21.6025C79.81 21.6025 80.1703 21.3186 80.1703 20.895C80.1703 20.879 80.1703 20.8653 80.1731 20.8538C80.1872 20.7897 80.1957 20.7302 80.1957 20.673C80.1957 20.3731 80.1056 20.0708 79.9254 19.7709C79.7594 19.4916 79.5567 19.2444 79.3062 19.0246L79.2189 18.9559C78.5771 18.4522 77.7946 18.1958 76.8966 18.1958H72.4548C72.0044 18.1958 71.5737 18.2668 71.1712 18.4087C70.7771 18.5484 70.4253 18.7407 70.1269 18.9857C69.8313 19.226 69.5892 19.5076 69.4091 19.8282C69.2233 20.1556 69.1304 20.515 69.1304 20.9019C69.1304 21.7078 69.4485 22.3374 70.0734 22.7724C70.6364 23.1639 71.3232 23.4615 72.1142 23.6538C72.8685 23.837 73.6708 23.9652 74.5012 24.0339C75.2837 24.1003 75.9762 24.1758 76.5504 24.2605C76.8009 24.3017 77.074 24.3613 77.3639 24.4368C77.6229 24.5055 77.8565 24.5993 78.0592 24.7138C78.245 24.8214 78.4054 24.9588 78.5293 25.1236C78.6419 25.2702 78.6982 25.467 78.6982 25.712C78.6982 26.0623 78.5546 26.3393 78.2478 26.5889C77.941 26.8384 77.5947 26.9529 77.1641 26.9529H72.2971C72.1226 26.9529 71.9368 26.9254 71.7511 26.8682C71.5653 26.8132 71.3964 26.7331 71.2528 26.6347C71.1065 26.5339 70.9882 26.4195 70.901 26.2935C70.825 26.1859 70.7912 26.0737 70.7912 25.9387V25.696C70.7912 25.2518 70.445 24.9657 69.9073 24.9657C69.4851 24.9657 69.1726 25.1694 69.0882 25.4968C69.046 25.6571 69.0234 25.815 69.0234 25.9616C69.0234 26.2912 69.1191 26.6163 69.3077 26.9231C69.4935 27.223 69.7469 27.4863 70.0621 27.7038C70.3661 27.9122 70.7095 28.0816 71.0867 28.2029C71.4724 28.3288 71.8862 28.3929 72.314 28.3929H77.1528C77.6229 28.3929 78.0676 28.3174 78.4702 28.1663C78.8586 28.0198 79.2076 27.8229 79.5032 27.5825C79.8016 27.3398 80.038 27.0536 80.2097 26.7308C80.3814 26.4057 80.4687 26.0554 80.4687 25.6891C80.4659 24.897 80.1675 24.2834 79.582 23.8622Z" fill="#673622"/>
  <path d="M83.2105 18.3057C82.6644 18.3057 82.3125 18.5918 82.3125 19.036V27.681C82.3125 28.1045 82.6728 28.3884 83.2105 28.3884C83.7312 28.3884 84.0802 28.1045 84.0802 27.681V19.036C84.0802 18.5987 83.7284 18.3057 83.2105 18.3057Z" fill="#673622"/>
  <path d="M82.4902 15.9292C82.3016 16.0826 82.2031 16.2841 82.2031 16.513C82.2031 16.7443 82.3016 16.9457 82.4902 17.0968C82.6788 17.2502 82.9265 17.3303 83.2108 17.3303C83.4923 17.3303 83.7428 17.2502 83.9286 17.0968C84.1172 16.9434 84.2157 16.742 84.2157 16.513C84.2157 16.2841 84.1172 16.0826 83.9258 15.9269C83.543 15.6179 82.873 15.6202 82.4902 15.9292Z" fill="#673622"/>
  <path d="M97.5835 19.4411C97.1134 19.0679 96.5617 18.7657 95.9368 18.5391C95.3006 18.3101 94.6223 18.1934 93.9185 18.1934H91.8243C91.1234 18.1934 90.445 18.3055 89.8116 18.5253C89.1811 18.7451 88.6266 19.0519 88.1649 19.4365C87.7089 19.8166 87.3346 20.263 87.0587 20.7621C86.7772 21.2681 86.6252 21.8153 86.6055 22.3945V27.6557C86.6055 28.0998 86.9573 28.386 87.5034 28.386C88.0242 28.386 88.3732 28.0929 88.3732 27.6557V22.3853C88.3901 22.0167 88.4915 21.6619 88.6772 21.3322C88.8687 20.9956 89.122 20.698 89.4316 20.4462C89.7356 20.1989 90.1016 19.9974 90.521 19.8486C90.9348 19.7021 91.3711 19.6288 91.8243 19.6288H93.9185C94.3689 19.6288 94.808 19.7021 95.2218 19.8486C95.6384 19.9952 96.01 20.2012 96.3252 20.4553C96.6405 20.7118 96.8995 21.0162 97.0909 21.3597C97.2767 21.6939 97.3695 22.0557 97.3695 22.4357V27.6534C97.3695 28.0906 97.7186 28.3837 98.2394 28.3837C98.7855 28.3837 99.1373 28.0975 99.1373 27.6534V22.3922C99.1373 21.8336 98.9937 21.2887 98.7122 20.7736C98.4336 20.2653 98.0536 19.8166 97.5835 19.4411Z" fill="#673622"/>
  <path d="M112.021 19.4548C111.551 19.0725 110.996 18.7657 110.371 18.5391C109.735 18.3101 109.057 18.1934 108.353 18.1934H106.259C105.555 18.1934 104.877 18.3101 104.241 18.5391C103.613 18.7657 103.058 19.0748 102.591 19.4548C102.124 19.8349 101.744 20.2882 101.465 20.7965C101.184 21.3116 101.04 21.8656 101.04 22.438V23.9628C101.04 24.5443 101.172 25.1098 101.428 25.6432C101.687 26.1767 102.051 26.6506 102.512 27.0467C102.971 27.445 103.523 27.7701 104.148 28.0128C104.787 28.2601 105.496 28.386 106.259 28.386H111.314C111.835 28.386 112.184 28.0929 112.184 27.6557C112.184 27.2321 111.835 26.9482 111.314 26.9482H106.259C105.6 26.9482 104.97 26.7948 104.387 26.4949C103.81 26.1973 103.382 25.7875 103.117 25.2792L102.946 24.961H112.401C112.719 24.961 113.006 24.8648 113.228 24.684C113.451 24.5031 113.569 24.2627 113.569 23.988V22.4403C113.569 21.8679 113.425 21.3162 113.144 20.7988C112.865 20.2882 112.488 19.8372 112.021 19.4548ZM111.804 22.438V23.5209H102.808V22.438C102.808 22.0579 102.901 21.6962 103.086 21.362C103.278 21.0185 103.534 20.714 103.852 20.4576C104.167 20.2012 104.539 19.9974 104.956 19.8486C105.369 19.7021 105.806 19.6288 106.259 19.6288H108.353C108.823 19.6288 109.271 19.7021 109.682 19.8486C110.098 19.9952 110.47 20.2012 110.785 20.4553C111.098 20.7095 111.351 21.014 111.534 21.3528C111.711 21.6916 111.804 22.0557 111.804 22.438Z" fill="#673622"/>
  <defs>
    <linearGradient id="paint0_linear_9_10904" x1="3.67873" y1="-14.257" x2="174.454" y2="40.577" gradientUnits="userSpaceOnUse">
      <stop offset="2.87972e-07" stop-color="#673622"/>
      <stop offset="0.49"/>
      <stop offset="1"/>
    </linearGradient>
  </defs>
</svg>