<svg width="20" height="20" viewBox="0 0 20 20" fill="none" xmlns="http://www.w3.org/2000/svg">
<path d="M7.525 18.075L9.46667 16.4417C9.75834 16.1917 10.2417 16.1917 10.5333 16.4417L12.475 18.075C12.925 18.3 13.475 18.075 13.6417 17.5917L14.0083 16.4833C14.1 16.2167 14.0083 15.825 13.8083 15.625L11.9167 13.725C11.775 13.5917 11.6667 13.325 11.6667 13.1333V10.7583C11.6667 10.4083 11.925 10.2417 12.25 10.375L16.3417 12.1417C16.9833 12.4167 17.5083 12.075 17.5083 11.375V10.3C17.5083 9.74165 17.0917 9.09999 16.575 8.88332L11.9167 6.87499C11.7833 6.81666 11.6667 6.64166 11.6667 6.49166V3.99165C11.6667 3.20832 11.0917 2.28332 10.3917 1.92499C10.1417 1.79999 9.85 1.79999 9.6 1.92499C8.9 2.28332 8.325 3.21665 8.325 3.99999V6.49999C8.325 6.64999 8.20834 6.82499 8.075 6.88332L3.425 8.89166C2.90834 9.09999 2.49167 9.74165 2.49167 10.3V11.375C2.49167 12.075 3.01667 12.4167 3.65834 12.1417L7.75 10.375C8.06667 10.2333 8.33334 10.4083 8.33334 10.7583V13.1333C8.33334 13.325 8.225 13.5917 8.09167 13.725L6.2 15.625C6 15.825 5.90834 16.2083 6 16.4833L6.36667 17.5917C6.51667 18.075 7.06667 18.3083 7.525 18.075Z" stroke="black" stroke-width="1.5" stroke-linecap="round" stroke-linejoin="round"/>
</svg>
