<svg width="17" height="17" viewBox="0 0 17 17" fill="none" xmlns="http://www.w3.org/2000/svg">
<path d="M8.5 0C5.51288 0 3.02148 2.40623 3.02148 5.47852C3.02148 6.64733 3.37271 7.68958 4.04676 8.66621L8.08074 14.9609C8.27644 15.2669 8.72396 15.2663 8.91926 14.9609L12.9707 8.6448C13.6303 7.71242 13.9785 6.61762 13.9785 5.47852C13.9785 2.45766 11.5209 0 8.5 0ZM8.5 7.96875C7.12695 7.96875 6.00977 6.85156 6.00977 5.47852C6.00977 4.10547 7.12695 2.98828 8.5 2.98828C9.87305 2.98828 10.9902 4.10547 10.9902 5.47852C10.9902 6.85156 9.87305 7.96875 8.5 7.96875Z" fill="#F4730E"/>
<path d="M12.3935 11.4451L9.88567 15.3659C9.23651 16.378 7.75987 16.3747 7.11384 15.3669L4.60189 11.4461C2.39175 11.9571 1.0293 12.8932 1.0293 14.0118C1.0293 15.953 4.87847 17.0001 8.5 17.0001C12.1215 17.0001 15.9707 15.953 15.9707 14.0118C15.9707 12.8924 14.6064 11.9558 12.3935 11.4451Z" fill="#F4730E"/>
</svg>
