<svg width="18" height="23" viewBox="0 0 18 23" fill="none" xmlns="http://www.w3.org/2000/svg">
    <path d="M8.89575 5.11385C6.79826 5.11385 5.09766 6.81445 5.09766 8.91194C5.09766 11.0094 6.79826 12.71 8.89575 12.71C10.9932 12.71 12.6938 11.0094 12.6938 8.91194C12.6938 6.81445 10.9932 5.11385 8.89575 5.11385ZM8.89575 11.7584C7.32317 11.7584 6.04718 10.4824 6.04718 8.90981C6.04718 7.33723 7.32104 6.06124 8.89575 6.06124C10.4683 6.06124 11.7443 7.33509 11.7443 8.90981C11.7443 10.4845 10.4683 11.7584 8.89575 11.7584Z" fill="black" stroke="black" stroke-width="0.5"/>
    <path d="M8.97387 1C4.57618 1 1 4.57832 1 8.97387C1 13.2243 8.23132 21.036 8.54071 21.3988L8.976 21.9109L9.41129 21.3988C9.71855 21.036 16.952 13.2243 16.952 8.97387C16.9477 4.57832 13.3715 1 8.97387 1ZM8.97173 20.1377C6.72061 17.3937 2.13943 11.9483 2.13943 8.97387C2.13943 5.20564 5.20564 2.13943 8.97387 2.13943C12.7421 2.13943 15.8083 5.20564 15.8083 8.97387C15.8083 12.2556 10.5358 18.2152 8.97173 20.1377Z" fill="black" stroke="black" stroke-width="0.5" stroke-linejoin="round"/>
    </svg>
    