<svg width="19" height="19" viewBox="0 0 19 19" fill="none" xmlns="http://www.w3.org/2000/svg">
    <path d="M11.8313 4.55942L12.1276 4.64791L12.3391 4.42232L15.4868 1.06517C16.2319 0.327545 17.3641 0.32581 18.0198 0.979779C18.6742 1.6327 18.6728 2.76031 17.9341 3.50331L14.5936 6.62059L14.3666 6.83243L14.4559 7.12982L17.385 16.8937L15.9457 18.3297L11.5316 10.3289L11.224 9.77135L10.7553 10.2024L7.28532 13.3941L7.27788 13.4009L7.27073 13.408C7.03203 13.6461 6.7697 13.829 6.50648 13.9584L6.14071 14.1382L6.24304 14.5327L7.06294 17.6933L6.36418 18.3904L4.61488 14.9504L4.5787 14.8792L4.52218 14.8229L4.18459 14.4864L4.12829 14.4302L4.05737 14.3943L0.611648 12.6505L1.30915 11.9546L4.41938 12.7577L4.81729 12.8605L4.99514 12.49C5.1248 12.2199 5.31236 11.9495 5.55883 11.7036L5.56604 11.6964L5.57295 11.689L8.75946 8.23995L9.19347 7.77019L8.63286 7.46237L0.672105 3.09128L2.11037 1.6564L11.8313 4.55942ZM0.457806 12.804L0.458012 12.8038C0.457938 12.8039 0.457865 12.8039 0.457791 12.804L0.457806 12.804Z" stroke="black"/>
    </svg>
    