<svg width="38" height="35" viewBox="0 0 38 35" fill="none" xmlns="http://www.w3.org/2000/svg">
<path d="M0.763672 0.890625H27.3583C32.8811 0.890625 37.3583 5.36778 37.3583 10.8906V34.7406H10.7637C5.24082 34.7406 0.763672 30.2635 0.763672 24.7406V0.890625Z" fill="#673622"/>
<g clip-path="url(#clip0_2_6912)">
<path d="M17.5465 24.1477C17.3051 24.1477 17.0638 24.051 16.8799 23.8583L11.1047 17.808C10.7359 17.4218 10.7359 16.7974 11.1047 16.4113C11.4733 16.0251 12.0691 16.0251 12.4379 16.4113L17.5465 21.7631L28.4306 10.3609C28.7992 9.97475 29.395 9.97475 29.7638 10.3609C30.1324 10.7473 30.1324 11.3714 29.7638 11.7578L18.2133 23.8583C18.0294 24.051 17.7879 24.1477 17.5465 24.1477Z" fill="white"/>
</g>
<defs>
<clipPath id="clip0_2_6912">
<rect width="19.2122" height="20.127" fill="white" transform="translate(10.8281 10.0396)"/>
</clipPath>
</defs>
</svg>
