<svg width="26" height="26" viewBox="0 0 26 26" fill="none" xmlns="http://www.w3.org/2000/svg">
<g clip-path="url(#clip0_911_9120)">
<path d="M0.702319 14.4449H2.33871C2.5492 14.4449 2.71974 14.2743 2.71974 14.0639C2.71974 13.8535 2.5492 13.6829 2.33871 13.6829H0.702319C0.491838 13.6829 0.321289 13.8535 0.321289 14.0639C0.321289 14.2743 0.491838 14.4449 0.702319 14.4449Z" fill="#673622"/>
<path d="M24.1011 0H22.8521C22.6416 0 22.4711 0.1706 22.4711 0.38103C22.4711 0.59146 22.6416 0.76206 22.8521 0.76206H24.1011C24.5506 0.76206 24.9163 1.12775 24.9163 1.57721V7.02731C24.9163 7.47682 24.5506 7.84246 24.1011 7.84246H3.53487C3.08535 7.84246 2.71972 7.47677 2.71972 7.02731V6.52257C2.71972 6.31214 2.54917 6.14154 2.33869 6.14154C2.12821 6.14154 1.95766 6.31214 1.95766 6.52257V7.02731C1.95766 7.89702 2.66521 8.60452 3.53487 8.60452H12.322V10.9811H10.4266C9.89034 10.9811 9.36828 11.1342 8.91684 11.4239L5.39714 13.6828H3.96249C3.752 13.6828 3.58146 13.8534 3.58146 14.0639C3.58146 14.2743 3.752 14.4449 3.96249 14.4449H5.50886C5.58186 14.4449 5.65324 14.4239 5.71466 14.3845L9.32845 12.0652C9.6568 11.8545 10.0366 11.7431 10.4266 11.7431H12.322V13.5124C11.7556 13.7284 11.3519 14.2769 11.3519 14.9182C11.3519 14.9913 11.3575 15.0632 11.3676 15.1335L11.2779 15.2875C10.7623 16.1729 9.80555 16.7229 8.78099 16.7229H7.92789C7.71741 16.7229 7.54686 16.8935 7.54686 17.1039C7.54686 17.3144 7.71741 17.485 7.92789 17.485H8.78099C9.96614 17.485 11.0793 16.9023 11.759 15.9456C11.7902 15.9789 11.8229 16.0109 11.857 16.0413C11.5474 16.3169 11.3519 16.7181 11.3519 17.1643C11.3519 17.6104 11.5474 18.0116 11.857 18.2873C11.5474 18.563 11.3519 18.9642 11.3519 19.4103C11.3519 19.8565 11.5474 20.2577 11.857 20.5333C11.5474 20.8091 11.3519 21.2102 11.3519 21.6564C11.3519 21.7841 11.3681 21.9082 11.3982 22.0268H7.79631C7.4324 22.0268 7.07143 21.9343 6.75239 21.7594L4.65535 20.6097C4.59296 20.5755 4.52229 20.5595 4.45137 20.5634L0.783121 20.7639C0.572996 20.7754 0.411948 20.955 0.423429 21.1651C0.434962 21.3753 0.615773 21.5365 0.824679 21.5248L4.38431 21.3303L6.38599 22.4277C6.81696 22.664 7.30462 22.7889 7.79625 22.7889H11.8678C12.0008 22.905 12.1542 22.9982 12.322 23.0622V25.619C12.322 25.8294 12.4925 26 12.703 26C12.9135 26 13.084 25.8294 13.084 25.619V23.1605H14.6937V25.619C14.6937 25.8294 14.8642 26 15.0747 26C15.2852 26 15.4557 25.8294 15.4557 25.619V22.9996C15.9465 22.7516 16.2841 22.2429 16.2841 21.6565C16.2841 21.2673 16.1355 20.9121 15.892 20.6448C16.2821 20.3727 16.5381 19.9211 16.5381 19.4104C16.5381 19.0327 16.3979 18.6873 16.1671 18.4229C16.5773 18.154 16.849 17.6905 16.849 17.1644C16.849 16.7491 16.6798 16.3727 16.4068 16.1002C16.7569 15.8246 16.9823 15.3975 16.9823 14.9183C16.9823 14.089 16.3076 13.4143 15.4783 13.4143H15.4558V8.60462H24.1012C24.9709 8.60462 25.6784 7.89707 25.6784 7.02741V1.57721C25.6784 0.707547 24.9708 0 24.1011 0V0ZM12.114 17.1643C12.114 16.7552 12.4469 16.4223 12.856 16.4223H15.3449C15.754 16.4223 16.0869 16.7552 16.0869 17.1643C16.0869 17.5735 15.754 17.9063 15.3449 17.9063H12.856C12.4469 17.9063 12.114 17.5735 12.114 17.1643ZM12.114 19.4104C12.114 19.0012 12.4469 18.6684 12.856 18.6684H15.0341C15.4432 18.6684 15.776 19.0012 15.776 19.4104C15.776 19.8195 15.4432 20.1524 15.0341 20.1524H12.856C12.4469 20.1524 12.114 19.8195 12.114 19.4104ZM14.7801 22.3985H12.856C12.4469 22.3985 12.114 22.0656 12.114 21.6565C12.114 21.2473 12.4469 20.9145 12.856 20.9145H14.7801C15.1892 20.9145 15.5221 21.2473 15.5221 21.6565C15.5221 22.0656 15.1892 22.3985 14.7801 22.3985ZM16.2202 14.9183C16.2202 15.3274 15.8873 15.6603 15.4783 15.6603H12.856C12.4469 15.6603 12.114 15.3274 12.114 14.9183C12.114 14.5091 12.4469 14.1763 12.856 14.1763H15.4783C15.8873 14.1763 16.2202 14.5091 16.2202 14.9183ZM14.6937 13.4142H13.084V8.60457H14.6937V13.4142Z" fill="#673622"/>
<path d="M2.33855 5.2798C2.54903 5.2798 2.71958 5.1092 2.71958 4.89877V1.57721C2.71958 1.12775 3.08522 0.76206 3.53473 0.76206H21.2281C21.4386 0.76206 21.6092 0.59146 21.6092 0.38103C21.6092 0.1706 21.4386 0 21.2281 0H3.53473C2.66507 0 1.95752 0.707547 1.95752 1.57721V4.89877C1.95752 5.1092 2.12807 5.2798 2.33855 5.2798Z" fill="#673622"/>
<path d="M7.86904 5.51985H6.7863C6.57582 5.51985 6.40527 5.69045 6.40527 5.90088C6.40527 6.11131 6.57582 6.28191 6.7863 6.28191H7.86904C8.51989 6.28191 9.04932 5.75243 9.04932 5.10158C9.04932 4.45073 8.51984 3.9213 7.86904 3.9213H7.5856C7.355 3.9213 7.16738 3.73368 7.16738 3.50303C7.16738 3.27238 7.355 3.08481 7.5856 3.08481H8.47574C8.68622 3.08481 8.85677 2.91421 8.85677 2.70378C8.85677 2.49335 8.68622 2.32275 8.47574 2.32275H7.5856C6.93475 2.32275 6.40532 2.85223 6.40532 3.50303C6.40532 4.15383 6.9348 4.68336 7.5856 4.68336H7.86904C8.09964 4.68336 8.28726 4.87098 8.28726 5.10158C8.28726 5.33218 8.09964 5.51985 7.86904 5.51985Z" fill="#673622"/>
<path d="M10.8157 6.28191C11.0262 6.28191 11.1968 6.11131 11.1968 5.90088V3.08481H11.8286C12.0391 3.08481 12.2096 2.91421 12.2096 2.70378C12.2096 2.49335 12.0391 2.32275 11.8286 2.32275H9.8029C9.59242 2.32275 9.42188 2.49335 9.42188 2.70378C9.42188 2.91421 9.59242 3.08481 9.8029 3.08481H10.4348V5.90093C10.4347 6.11136 10.6053 6.28191 10.8157 6.28191Z" fill="#673622"/>
<path d="M12.5669 3.77051V4.8342C12.5669 5.63248 13.2163 6.28196 14.0146 6.28196C14.8129 6.28196 15.4624 5.63248 15.4624 4.8342V3.77051C15.4624 2.97223 14.8129 2.32275 14.0146 2.32275C13.2163 2.32275 12.5669 2.97223 12.5669 3.77051ZM14.7003 3.77051V4.8342C14.7003 5.21228 14.3927 5.5199 14.0146 5.5199C13.6366 5.5199 13.329 5.21228 13.329 4.8342V3.77051C13.329 3.39243 13.6366 3.08481 14.0146 3.08481C14.3927 3.08486 14.7003 3.39243 14.7003 3.77051Z" fill="#673622"/>
<path d="M17.2988 2.3228C16.7852 2.3228 16.3672 2.74072 16.3672 3.2544V5.90093C16.3672 6.11136 16.5377 6.28196 16.7482 6.28196C16.9587 6.28196 17.1292 6.11136 17.1292 5.90093V5.00856H17.6011C18.3416 5.00856 18.944 4.40617 18.944 3.66566C18.944 2.92514 18.3416 2.32275 17.6011 2.32275H17.2988V2.3228ZM18.1819 3.66566C18.1819 3.98592 17.9213 4.2465 17.6011 4.2465H17.1292V3.2544C17.1292 3.16092 17.2053 3.08486 17.2988 3.08486H17.6011C17.9214 3.08486 18.1819 3.34539 18.1819 3.66566Z" fill="#673622"/>
<path d="M20.404 5.13965C20.1935 5.13965 20.0229 5.31025 20.0229 5.52068V5.90095C20.0229 6.11138 20.1935 6.28198 20.404 6.28198C20.6145 6.28198 20.785 6.11138 20.785 5.90095V5.52068C20.785 5.31025 20.6144 5.13965 20.404 5.13965Z" fill="#673622"/>
<path d="M20.785 2.70378C20.785 2.49335 20.6145 2.32275 20.404 2.32275C20.1935 2.32275 20.0229 2.49335 20.0229 2.70378V4.17959C20.0229 4.39002 20.1935 4.56062 20.404 4.56062C20.6145 4.56062 20.785 4.39002 20.785 4.17959V2.70378Z" fill="#673622"/>
</g>
<defs>
<clipPath id="clip0_911_9120">
<rect width="26" height="26" fill="white"/>
</clipPath>
</defs>
</svg>
