<svg xmlns="http://www.w3.org/2000/svg" width="18" height="20" viewBox="0 0 18 20" fill="none">
  <path d="M1 4.34811C1 2.499 2.38193 1 4.08663 1H13.9638C15.6406 1 17 2.47453 17 4.29345C17 5.26222 16.6068 6.18186 15.925 6.80763L12.7958 9.6797C11.7978 10.5957 11.2222 11.9419 11.2222 13.3599V15.0768C11.2222 15.9251 10.848 16.7222 10.2155 17.2212L8.48996 18.5825C7.59241 19.2905 6.33333 18.5951 6.33333 17.3912V13.2447C6.33333 11.8934 5.81046 10.6041 4.89211 9.69095L2.00092 6.81618C1.36313 6.18202 1 5.28661 1 4.34811Z" stroke="white" stroke-width="1.5"/>
</svg>